<svg xmlns:xlink="http://www.w3.org/1999/xlink" xmlns="http://www.w3.org/2000/svg" viewBox="0 0 64 64" width="64"  height="64" ><defs><style>.cls-1{fill:#1e1635;}.cls-2{fill:#25b9d6;}</style></defs><g id="Camada_2" data-name="Camada 2"><g id="Camada_1-2" data-name="Camada 1"><rect class="cls-1" width="64" height="64" rx="8"/><path class="cls-2" d="M12.22,18.8h5.53V38.19h12V42.7H12.22Z"/><path class="cls-2" d="M30.92,30.75c0-7.2,5.54-12.36,13-12.36a12.34,12.34,0,0,1,9.83,4.24L50.18,25.9a7.71,7.71,0,0,0-6-2.8,7.33,7.33,0,0,0-7.65,7.65,7.33,7.33,0,0,0,7.65,7.65,7.63,7.63,0,0,0,6-2.84l3.55,3.28a12.26,12.26,0,0,1-9.87,4.27C36.46,43.11,30.92,38,30.92,30.75Z"/></g></g></svg>